<?xml version="1.0" encoding="UTF-8"?>
<svg id="Layer_1" xmlns="http://www.w3.org/2000/svg" viewBox="0 0 64 64">
  <path d="M34.55,51.89V12.09l10.31,5.02v15.52c.65-.22,1.32-.38,2-.48v-15.66c0-.38-.22-.73-.56-.9l-12.31-6c-.14-.06-.28-.09-.43-.09-.15,0-.31.03-.45.09l-11.86,5.79-11.87-5.79c-.5-.24-1.1-.03-1.34.48-.06.13-.1.28-.1.42v43c0,.56.47,1,1.03,1,.14,0,.28-.03.41-.1l11.87-5.79,11.86,5.79c.14.06.29.09.44.1-.11.27,5.55-2.63,5.62-2.63-.42-.52-.8-1.08-1.12-1.67l-3.5,1.7ZM20.25,46.86l-10.31,5.03V12.09l10.31,5.02v29.75ZM32.55,51.89l-10.3-5.03v-29.75l10.3-5.02v39.8ZM48.7,34.01c-7.62-.15-12.83,8.66-8.86,15.3,5.17,8.97,19.02,5.39,19.08-5.08,0-5.64-4.58-10.21-10.22-10.22ZM53.63,45.84l-4.05,4.06c-.28.48-.89.65-1.38.38-.17-.1-.31-.24-.39-.41-1.18-1.19-2.86-2.85-4.04-4.03-.38-.4-.37-1.03.03-1.41.39-.37,1.01-.37,1.39,0l2.51,2.51v-7.9c0-.55.45-1,1-1s1,.45,1,1v7.9l2.52-2.51c.4-.38,1.03-.37,1.41.03.37.39.37,1,0,1.38Z"/>
</svg>