<?xml version="1.0" encoding="UTF-8"?>
<svg xmlns="http://www.w3.org/2000/svg" version="1.1" viewBox="0 0 64 64">
  <defs>
    <style>
      .cls-1 {
        fill: #3fa02e;
      }

      .cls-2 {
        fill: #0f6e00;
      }
    </style>
  </defs>
  <!-- Generator: Adobe Illustrator 28.7.1, SVG Export Plug-In . SVG Version: 1.2.0 Build 142)  -->
  <g>
    <g id="Layer_1">
      <path class="cls-1" d="M33.6,56.5c-.2,0-.3,0-.5,0-.3,0-.5-.1-.8-.2l-11.1-5.4-11,5.4c-.3.2-.8.3-1.3.3-1.7,0-3-1.3-3-3V10.5c0-.4,0-.9.3-1.3.5-1.1,1.6-1.7,2.7-1.7s.9.1,1.3.3l11,5.4,11-5.4c.5-.2.9-.3,1.3-.3s.8,0,1.2.3l12.4,6c1,.5,1.7,1.6,1.7,2.7v15.5c6.6,0,12.1,5.5,12.1,12.2,0,7.6-6.3,12.2-12.4,12.2h0c-3.1,0-5.9-1.1-8-3.1-.2.2-.4.3-.6.4-.2,0-.5.3-1,.5-4.6,2.3-4.7,2.3-5.3,2.3ZM36.5,48.7s.6-.3.6-.3c-.3-.8-.5-1.7-.6-2.6v2.9ZM11.9,48.7l6.3-3.1v-27.2l-6.3-3.1v33.4ZM30.5,48.7V15.3l-6.3,3.1v27.3l6.3,3.1ZM36.5,43c.2-1.6.7-3.2,1.6-4.7,1.2-2.1,2.9-3.8,4.9-4.8-.1-.2-.2-.5-.2-.8v-14.3l-6.3-3.1v27.7Z"/>
      <path class="cls-2" d="M34.5,51.9V12.1l10.3,5v15.5c.7-.2,1.3-.4,2-.5v-15.7c0-.4-.2-.7-.6-.9l-12.3-6c-.1,0-.3,0-.4,0s-.3,0-.5,0l-11.9,5.8-11.9-5.8c-.5-.2-1.1,0-1.3.5,0,.1,0,.3,0,.4v43c0,.6.5,1,1,1s.3,0,.4,0l11.9-5.8,11.9,5.8c.1,0,.3,0,.4,0-.1.3,5.5-2.6,5.6-2.6-.4-.5-.8-1.1-1.1-1.7,0,0-3.5,1.7-3.5,1.7ZM20.2,46.9l-10.3,5V12.1l10.3,5v29.8ZM32.5,51.9l-10.3-5v-29.8l10.3-5v39.8ZM48.7,34c-7.6-.2-12.8,8.7-8.9,15.3,5.2,9,19,5.4,19.1-5.1,0-5.6-4.6-10.2-10.2-10.2ZM53.6,45.8l-4,4.1c-.3.5-.9.7-1.4.4-.2,0-.3-.2-.4-.4-1.2-1.2-2.9-2.8-4-4-.4-.4-.4-1,0-1.4.4-.4,1-.4,1.4,0l2.5,2.5v-7.9c0-.5.5-1,1-1s1,.5,1,1v7.9l2.5-2.5c.4-.4,1-.4,1.4,0,.4.4.4,1,0,1.4Z"/>
    </g>
  </g>
</svg>